<svg xmlns="http://www.w3.org/2000/svg" viewBox="0 0 1200 1200" font-family="Segoe UI,Helvetica,Arial,sans-serif">
<rect width="1200" height="1200" fill="#0f1020"/>
<text x="24" y="34" fill="#f4f4fb" font-size="20" font-weight="700">Yar &#8212; Universal Feature Hierarchy (radial dendrogram)</text>
<text x="24" y="54" fill="#a9abce" font-size="12">Root &#8250; 6 domains &#8250; 19 clusters &#8250; 62 features. Color = domain; opacity = build status; dashed ring = safety-gated.</text>
<path d="M600.0,600.0 L705.0,492.9" stroke="#3a3c63" stroke-opacity="0.5" fill="none"/>
<path d="M705.0,492.9 L627.0,326.3" stroke="#3a3c63" stroke-opacity="0.5" fill="none"/>
<path d="M627.0,326.3 L600.0,200.0" stroke="#3a3c63" stroke-opacity="0.5" fill="none"/>
<path d="M627.0,326.3 L639.2,201.9" stroke="#3a3c63" stroke-opacity="0.5" fill="none"/>
<path d="M627.0,326.3 L678.0,207.7" stroke="#3a3c63" stroke-opacity="0.5" fill="none"/>
<path d="M705.0,492.9 L705.2,345.9" stroke="#3a3c63" stroke-opacity="0.5" fill="none"/>
<path d="M705.2,345.9 L716.1,217.2" stroke="#3a3c63" stroke-opacity="0.5" fill="none"/>
<path d="M705.2,345.9 L753.1,230.4" stroke="#3a3c63" stroke-opacity="0.5" fill="none"/>
<path d="M705.2,345.9 L788.6,247.2" stroke="#3a3c63" stroke-opacity="0.5" fill="none"/>
<path d="M705.0,492.9 L794.5,405.5" stroke="#3a3c63" stroke-opacity="0.5" fill="none"/>
<path d="M794.5,405.5 L822.2,267.4" stroke="#3a3c63" stroke-opacity="0.5" fill="none"/>
<path d="M794.5,405.5 L853.8,290.8" stroke="#3a3c63" stroke-opacity="0.5" fill="none"/>
<path d="M794.5,405.5 L882.8,317.2" stroke="#3a3c63" stroke-opacity="0.5" fill="none"/>
<path d="M794.5,405.5 L909.2,346.2" stroke="#3a3c63" stroke-opacity="0.5" fill="none"/>
<path d="M794.5,405.5 L932.6,377.8" stroke="#3a3c63" stroke-opacity="0.5" fill="none"/>
<path d="M705.0,492.9 L854.1,494.8" stroke="#3a3c63" stroke-opacity="0.5" fill="none"/>
<path d="M854.1,494.8 L952.8,411.4" stroke="#3a3c63" stroke-opacity="0.5" fill="none"/>
<path d="M854.1,494.8 L969.6,446.9" stroke="#3a3c63" stroke-opacity="0.5" fill="none"/>
<path d="M854.1,494.8 L982.8,483.9" stroke="#3a3c63" stroke-opacity="0.5" fill="none"/>
<path d="M705.0,492.9 L872.0,559.6" stroke="#3a3c63" stroke-opacity="0.5" fill="none"/>
<path d="M872.0,559.6 L992.3,522.0" stroke="#3a3c63" stroke-opacity="0.5" fill="none"/>
<path d="M872.0,559.6 L998.1,560.8" stroke="#3a3c63" stroke-opacity="0.5" fill="none"/>
<path d="M600.0,600.0 L695.2,716.0" stroke="#3a3c63" stroke-opacity="0.5" fill="none"/>
<path d="M695.2,716.0 L869.7,653.6" stroke="#3a3c63" stroke-opacity="0.5" fill="none"/>
<path d="M869.7,653.6 L1000.0,600.0" stroke="#3a3c63" stroke-opacity="0.5" fill="none"/>
<path d="M869.7,653.6 L998.1,639.2" stroke="#3a3c63" stroke-opacity="0.5" fill="none"/>
<path d="M869.7,653.6 L992.3,678.0" stroke="#3a3c63" stroke-opacity="0.5" fill="none"/>
<path d="M869.7,653.6 L982.8,716.1" stroke="#3a3c63" stroke-opacity="0.5" fill="none"/>
<path d="M869.7,653.6 L969.6,753.1" stroke="#3a3c63" stroke-opacity="0.5" fill="none"/>
<path d="M695.2,716.0 L820.9,763.8" stroke="#3a3c63" stroke-opacity="0.5" fill="none"/>
<path d="M820.9,763.8 L952.8,788.6" stroke="#3a3c63" stroke-opacity="0.5" fill="none"/>
<path d="M820.9,763.8 L932.6,822.2" stroke="#3a3c63" stroke-opacity="0.5" fill="none"/>
<path d="M820.9,763.8 L909.2,853.8" stroke="#3a3c63" stroke-opacity="0.5" fill="none"/>
<path d="M820.9,763.8 L882.8,882.8" stroke="#3a3c63" stroke-opacity="0.5" fill="none"/>
<path d="M695.2,716.0 L717.6,848.6" stroke="#3a3c63" stroke-opacity="0.5" fill="none"/>
<path d="M717.6,848.6 L853.8,909.2" stroke="#3a3c63" stroke-opacity="0.5" fill="none"/>
<path d="M717.6,848.6 L822.2,932.6" stroke="#3a3c63" stroke-opacity="0.5" fill="none"/>
<path d="M717.6,848.6 L788.6,952.8" stroke="#3a3c63" stroke-opacity="0.5" fill="none"/>
<path d="M717.6,848.6 L753.1,969.6" stroke="#3a3c63" stroke-opacity="0.5" fill="none"/>
<path d="M717.6,848.6 L716.1,982.8" stroke="#3a3c63" stroke-opacity="0.5" fill="none"/>
<path d="M717.6,848.6 L678.0,992.3" stroke="#3a3c63" stroke-opacity="0.5" fill="none"/>
<path d="M695.2,716.0 L600.0,875.0" stroke="#3a3c63" stroke-opacity="0.5" fill="none"/>
<path d="M600.0,875.0 L639.2,998.1" stroke="#3a3c63" stroke-opacity="0.5" fill="none"/>
<path d="M600.0,875.0 L600.0,1000.0" stroke="#3a3c63" stroke-opacity="0.5" fill="none"/>
<path d="M600.0,875.0 L560.8,998.1" stroke="#3a3c63" stroke-opacity="0.5" fill="none"/>
<path d="M600.0,600.0 L539.2,737.1" stroke="#3a3c63" stroke-opacity="0.5" fill="none"/>
<path d="M539.2,737.1 L520.2,863.2" stroke="#3a3c63" stroke-opacity="0.5" fill="none"/>
<path d="M520.2,863.2 L522.0,992.3" stroke="#3a3c63" stroke-opacity="0.5" fill="none"/>
<path d="M520.2,863.2 L483.9,982.8" stroke="#3a3c63" stroke-opacity="0.5" fill="none"/>
<path d="M520.2,863.2 L446.9,969.6" stroke="#3a3c63" stroke-opacity="0.5" fill="none"/>
<path d="M539.2,737.1 L458.6,835.9" stroke="#3a3c63" stroke-opacity="0.5" fill="none"/>
<path d="M458.6,835.9 L411.4,952.8" stroke="#3a3c63" stroke-opacity="0.5" fill="none"/>
<path d="M458.6,835.9 L377.8,932.6" stroke="#3a3c63" stroke-opacity="0.5" fill="none"/>
<path d="M600.0,600.0 L499.3,711.1" stroke="#3a3c63" stroke-opacity="0.5" fill="none"/>
<path d="M499.3,711.1 L415.3,803.8" stroke="#3a3c63" stroke-opacity="0.5" fill="none"/>
<path d="M415.3,803.8 L346.2,909.2" stroke="#3a3c63" stroke-opacity="0.5" fill="none"/>
<path d="M415.3,803.8 L317.2,882.8" stroke="#3a3c63" stroke-opacity="0.5" fill="none"/>
<path d="M600.0,600.0 L452.2,574.4" stroke="#3a3c63" stroke-opacity="0.5" fill="none"/>
<path d="M452.2,574.4 L351.4,717.6" stroke="#3a3c63" stroke-opacity="0.5" fill="none"/>
<path d="M351.4,717.6 L290.8,853.8" stroke="#3a3c63" stroke-opacity="0.5" fill="none"/>
<path d="M351.4,717.6 L267.4,822.2" stroke="#3a3c63" stroke-opacity="0.5" fill="none"/>
<path d="M351.4,717.6 L247.2,788.6" stroke="#3a3c63" stroke-opacity="0.5" fill="none"/>
<path d="M351.4,717.6 L230.4,753.1" stroke="#3a3c63" stroke-opacity="0.5" fill="none"/>
<path d="M351.4,717.6 L217.2,716.1" stroke="#3a3c63" stroke-opacity="0.5" fill="none"/>
<path d="M351.4,717.6 L207.7,678.0" stroke="#3a3c63" stroke-opacity="0.5" fill="none"/>
<path d="M452.2,574.4 L325.3,586.5" stroke="#3a3c63" stroke-opacity="0.5" fill="none"/>
<path d="M325.3,586.5 L201.9,639.2" stroke="#3a3c63" stroke-opacity="0.5" fill="none"/>
<path d="M325.3,586.5 L200.0,600.0" stroke="#3a3c63" stroke-opacity="0.5" fill="none"/>
<path d="M325.3,586.5 L201.9,560.8" stroke="#3a3c63" stroke-opacity="0.5" fill="none"/>
<path d="M325.3,586.5 L207.7,522.0" stroke="#3a3c63" stroke-opacity="0.5" fill="none"/>
<path d="M452.2,574.4 L345.9,494.8" stroke="#3a3c63" stroke-opacity="0.5" fill="none"/>
<path d="M345.9,494.8 L217.2,483.9" stroke="#3a3c63" stroke-opacity="0.5" fill="none"/>
<path d="M345.9,494.8 L230.4,446.9" stroke="#3a3c63" stroke-opacity="0.5" fill="none"/>
<path d="M345.9,494.8 L247.2,411.4" stroke="#3a3c63" stroke-opacity="0.5" fill="none"/>
<path d="M452.2,574.4 L387.4,425.5" stroke="#3a3c63" stroke-opacity="0.5" fill="none"/>
<path d="M387.4,425.5 L267.4,377.8" stroke="#3a3c63" stroke-opacity="0.5" fill="none"/>
<path d="M387.4,425.5 L290.8,346.2" stroke="#3a3c63" stroke-opacity="0.5" fill="none"/>
<path d="M387.4,425.5 L317.2,317.2" stroke="#3a3c63" stroke-opacity="0.5" fill="none"/>
<path d="M600.0,600.0 L547.2,459.6" stroke="#3a3c63" stroke-opacity="0.5" fill="none"/>
<path d="M547.2,459.6 L447.2,371.3" stroke="#3a3c63" stroke-opacity="0.5" fill="none"/>
<path d="M447.2,371.3 L346.2,290.8" stroke="#3a3c63" stroke-opacity="0.5" fill="none"/>
<path d="M447.2,371.3 L377.8,267.4" stroke="#3a3c63" stroke-opacity="0.5" fill="none"/>
<path d="M447.2,371.3 L411.4,247.2" stroke="#3a3c63" stroke-opacity="0.5" fill="none"/>
<path d="M547.2,459.6 L507.4,341.1" stroke="#3a3c63" stroke-opacity="0.5" fill="none"/>
<path d="M507.4,341.1 L446.9,230.4" stroke="#3a3c63" stroke-opacity="0.5" fill="none"/>
<path d="M507.4,341.1 L483.9,217.2" stroke="#3a3c63" stroke-opacity="0.5" fill="none"/>
<path d="M547.2,459.6 L559.6,328.0" stroke="#3a3c63" stroke-opacity="0.5" fill="none"/>
<path d="M559.6,328.0 L522.0,207.7" stroke="#3a3c63" stroke-opacity="0.5" fill="none"/>
<path d="M559.6,328.0 L560.8,201.9" stroke="#3a3c63" stroke-opacity="0.5" fill="none"/>
<circle cx="600.0" cy="600.0" r="6" fill="#ffffff"/>
<circle cx="705.0" cy="492.9" r="5" fill="#8B3FC7"/>
<text x="712.7" y="485.0" fill="#fff" font-size="13" font-weight="700" text-anchor="start" transform="rotate(-45.6 712.7 485.0)" dominant-baseline="middle">AEF</text>
<circle cx="627.0" cy="326.3" r="5" fill="#8B3FC7"/>
<circle cx="600.0" cy="200.0" r="4" fill="#8B3FC7" fill-opacity="1.0"/>
<text x="600.0" y="193.0" fill="#e9ebff" font-size="9" text-anchor="start" transform="rotate(-90.0 600.0 193.0)" dominant-baseline="middle" fill-opacity="1.00">F01 Voice brain dump</text>
<circle cx="639.2" cy="201.9" r="4" fill="#8B3FC7" fill-opacity="1.0"/>
<text x="639.9" y="195.0" fill="#e9ebff" font-size="9" text-anchor="start" transform="rotate(-84.4 639.9 195.0)" dominant-baseline="middle" fill-opacity="1.00">F32 Stray thought capture</text>
<circle cx="678.0" cy="207.7" r="4" fill="#8B3FC7" fill-opacity="0.64"/>
<text x="679.4" y="200.8" fill="#e9ebff" font-size="9" text-anchor="start" transform="rotate(-78.8 679.4 200.8)" dominant-baseline="middle" fill-opacity="0.64">F59 Capture from anywhere</text>
<circle cx="705.2" cy="345.9" r="5" fill="#8B3FC7"/>
<circle cx="716.1" cy="217.2" r="4" fill="#8B3FC7" fill-opacity="1.0"/>
<text x="718.1" y="210.5" fill="#e9ebff" font-size="9" text-anchor="start" transform="rotate(-73.1 718.1 210.5)" dominant-baseline="middle" fill-opacity="1.00">F02 Brain dump to action plan</text>
<circle cx="753.1" cy="230.4" r="4" fill="#8B3FC7" fill-opacity="1.0"/>
<text x="755.8" y="224.0" fill="#e9ebff" font-size="9" text-anchor="start" transform="rotate(-67.5 755.8 224.0)" dominant-baseline="middle" fill-opacity="1.00">F03 Tasks from your words</text>
<circle cx="788.6" cy="247.2" r="4" fill="#8B3FC7" fill-opacity="1.0"/>
<text x="791.9" y="241.1" fill="#e9ebff" font-size="9" text-anchor="start" transform="rotate(-61.9 791.9 241.1)" dominant-baseline="middle" fill-opacity="1.00">F04 Right-sized task breakdown</text>
<circle cx="794.5" cy="405.5" r="5" fill="#8B3FC7"/>
<circle cx="822.2" cy="267.4" r="4" fill="#8B3FC7" fill-opacity="1.0"/>
<text x="826.1" y="261.6" fill="#e9ebff" font-size="9" text-anchor="start" transform="rotate(-56.2 826.1 261.6)" dominant-baseline="middle" fill-opacity="1.00">F06 Focus companion &amp; body doubling</text>
<circle cx="853.8" cy="290.8" r="4" fill="#8B3FC7" fill-opacity="0.4"/>
<text x="858.2" y="285.4" fill="#e9ebff" font-size="9" text-anchor="start" transform="rotate(-50.6 858.2 285.4)" dominant-baseline="middle" fill-opacity="0.60">F20 Single-task focus mode</text>
<circle cx="882.8" cy="317.2" r="4" fill="#8B3FC7" fill-opacity="0.4"/>
<text x="887.8" y="312.2" fill="#e9ebff" font-size="9" text-anchor="start" transform="rotate(-45.0 887.8 312.2)" dominant-baseline="middle" fill-opacity="0.60">F21 Graceful activity pause</text>
<circle cx="909.2" cy="346.2" r="4" fill="#8B3FC7" fill-opacity="0.4"/>
<text x="914.6" y="341.8" fill="#e9ebff" font-size="9" text-anchor="start" transform="rotate(-39.4 914.6 341.8)" dominant-baseline="middle" fill-opacity="0.60">F22 Gentle break prompts</text>
<circle cx="932.6" cy="377.8" r="4" fill="#8B3FC7" fill-opacity="0.4"/>
<text x="938.4" y="373.9" fill="#e9ebff" font-size="9" text-anchor="start" transform="rotate(-33.8 938.4 373.9)" dominant-baseline="middle" fill-opacity="0.60">F26 Floating task reminder</text>
<circle cx="854.1" cy="494.8" r="5" fill="#8B3FC7"/>
<circle cx="952.8" cy="411.4" r="4" fill="#8B3FC7" fill-opacity="1.0"/>
<text x="958.9" y="408.1" fill="#e9ebff" font-size="9" text-anchor="start" transform="rotate(-28.1 958.9 408.1)" dominant-baseline="middle" fill-opacity="1.00">F07 Flexible plan with a backup track</text>
<circle cx="969.6" cy="446.9" r="4" fill="#8B3FC7" fill-opacity="0.4"/>
<text x="976.0" y="444.2" fill="#e9ebff" font-size="9" text-anchor="start" transform="rotate(-22.5 976.0 444.2)" dominant-baseline="middle" fill-opacity="0.60">F24 AI morning plan</text>
<circle cx="982.8" cy="483.9" r="4" fill="#8B3FC7" fill-opacity="0.4"/>
<text x="989.5" y="481.9" fill="#e9ebff" font-size="9" text-anchor="start" transform="rotate(-16.9 989.5 481.9)" dominant-baseline="middle" fill-opacity="0.60">F64 Personal compass (gentle goals)</text>
<circle cx="872.0" cy="559.6" r="5" fill="#8B3FC7"/>
<circle cx="992.3" cy="522.0" r="4" fill="#8B3FC7" fill-opacity="0.4" stroke="#fff" stroke-width="1.4" stroke-dasharray="2,2"/>
<text x="999.2" y="520.6" fill="#e9ebff" font-size="9" text-anchor="start" transform="rotate(-11.2 999.2 520.6)" dominant-baseline="middle" fill-opacity="0.60">F28 Open data connections (MCP)</text>
<circle cx="998.1" cy="560.8" r="4" fill="#8B3FC7" fill-opacity="0.4"/>
<text x="1005.0" y="560.1" fill="#e9ebff" font-size="9" text-anchor="start" transform="rotate(-5.6 1005.0 560.1)" dominant-baseline="middle" fill-opacity="0.60">F41 All-in-one ND support app</text>
<circle cx="695.2" cy="716.0" r="5" fill="#3B7DD6"/>
<text x="702.1" y="724.5" fill="#fff" font-size="13" font-weight="700" text-anchor="start" transform="rotate(50.6 702.1 724.5)" dominant-baseline="middle">ERM</text>
<circle cx="869.7" cy="653.6" r="5" fill="#3B7DD6"/>
<circle cx="1000.0" cy="600.0" r="4" fill="#3B7DD6" fill-opacity="1.0"/>
<text x="1007.0" y="600.0" fill="#e9ebff" font-size="9" text-anchor="start" transform="rotate(0.0 1007.0 600.0)" dominant-baseline="middle" fill-opacity="1.00">F05 Your energy &amp; mood map</text>
<circle cx="998.1" cy="639.2" r="4" fill="#3B7DD6" fill-opacity="1.0"/>
<text x="1005.0" y="639.9" fill="#e9ebff" font-size="9" text-anchor="start" transform="rotate(5.6 1005.0 639.9)" dominant-baseline="middle" fill-opacity="1.00">F08 Mood tag on tasks</text>
<circle cx="992.3" cy="678.0" r="4" fill="#3B7DD6" fill-opacity="0.4" stroke="#fff" stroke-width="1.4" stroke-dasharray="2,2"/>
<text x="999.2" y="679.4" fill="#e9ebff" font-size="9" text-anchor="start" transform="rotate(11.2 999.2 679.4)" dominant-baseline="middle" fill-opacity="0.60">F40 Voice wellbeing signals (research)</text>
<circle cx="982.8" cy="716.1" r="4" fill="#3B7DD6" fill-opacity="1.0"/>
<text x="989.5" y="718.1" fill="#e9ebff" font-size="9" text-anchor="start" transform="rotate(16.9 989.5 718.1)" dominant-baseline="middle" fill-opacity="1.00">F53 Mood-anchored morning check-in</text>
<circle cx="969.6" cy="753.1" r="4" fill="#3B7DD6" fill-opacity="0.54"/>
<text x="976.0" y="755.8" fill="#e9ebff" font-size="9" text-anchor="start" transform="rotate(22.5 976.0 755.8)" dominant-baseline="middle" fill-opacity="0.60">F54 Voice mood awareness</text>
<circle cx="820.9" cy="763.8" r="5" fill="#3B7DD6"/>
<circle cx="952.8" cy="788.6" r="4" fill="#3B7DD6" fill-opacity="1.0"/>
<text x="958.9" y="791.9" fill="#e9ebff" font-size="9" text-anchor="start" transform="rotate(28.1 958.9 791.9)" dominant-baseline="middle" fill-opacity="1.00">F11 Companion style &amp; voice</text>
<circle cx="932.6" cy="822.2" r="4" fill="#3B7DD6" fill-opacity="0.4"/>
<text x="938.4" y="826.1" fill="#e9ebff" font-size="9" text-anchor="start" transform="rotate(33.7 938.4 826.1)" dominant-baseline="middle" fill-opacity="0.60">F29 Companion that learns your style</text>
<circle cx="909.2" cy="853.8" r="4" fill="#3B7DD6" fill-opacity="0.4"/>
<text x="914.6" y="858.2" fill="#e9ebff" font-size="9" text-anchor="start" transform="rotate(39.4 914.6 858.2)" dominant-baseline="middle" fill-opacity="0.60">F45 Mood-matched companion</text>
<circle cx="882.8" cy="882.8" r="4" fill="#3B7DD6" fill-opacity="0.64"/>
<text x="887.8" y="887.8" fill="#e9ebff" font-size="9" text-anchor="start" transform="rotate(45.0 887.8 887.8)" dominant-baseline="middle" fill-opacity="0.64">F57 Adaptive companion that builds trust</text>
<circle cx="717.6" cy="848.6" r="5" fill="#3B7DD6"/>
<circle cx="853.8" cy="909.2" r="4" fill="#3B7DD6" fill-opacity="1.0" stroke="#fff" stroke-width="1.4" stroke-dasharray="2,2"/>
<text x="858.2" y="914.6" fill="#e9ebff" font-size="9" text-anchor="start" transform="rotate(50.6 858.2 914.6)" dominant-baseline="middle" fill-opacity="1.00">F27 Rest day support</text>
<circle cx="822.2" cy="932.6" r="4" fill="#3B7DD6" fill-opacity="0.4"/>
<text x="826.1" y="938.4" fill="#e9ebff" font-size="9" text-anchor="start" transform="rotate(56.3 826.1 938.4)" dominant-baseline="middle" fill-opacity="0.60">F35 Energy check before saying yes</text>
<circle cx="788.6" cy="952.8" r="4" fill="#3B7DD6" fill-opacity="0.4"/>
<text x="791.9" y="958.9" fill="#e9ebff" font-size="9" text-anchor="start" transform="rotate(61.9 791.9 958.9)" dominant-baseline="middle" fill-opacity="0.60">F38 No-penalty plan change</text>
<circle cx="753.1" cy="969.6" r="4" fill="#3B7DD6" fill-opacity="1.0"/>
<text x="755.8" y="976.0" fill="#e9ebff" font-size="9" text-anchor="start" transform="rotate(67.5 755.8 976.0)" dominant-baseline="middle" fill-opacity="1.00">F44 Streaks that honor rest days</text>
<circle cx="716.1" cy="982.8" r="4" fill="#3B7DD6" fill-opacity="0.4" stroke="#fff" stroke-width="1.4" stroke-dasharray="2,2"/>
<text x="718.1" y="989.5" fill="#e9ebff" font-size="9" text-anchor="start" transform="rotate(73.1 718.1 989.5)" dominant-baseline="middle" fill-opacity="0.60">F48 Gentle reset after a hard day</text>
<circle cx="678.0" cy="992.3" r="4" fill="#3B7DD6" fill-opacity="0.4"/>
<text x="679.4" y="999.2" fill="#e9ebff" font-size="9" text-anchor="start" transform="rotate(78.7 679.4 999.2)" dominant-baseline="middle" fill-opacity="0.60">F49 Your week as a story</text>
<circle cx="600.0" cy="875.0" r="5" fill="#3B7DD6"/>
<circle cx="639.2" cy="998.1" r="4" fill="#3B7DD6" fill-opacity="1.0"/>
<text x="639.9" y="1005.0" fill="#e9ebff" font-size="9" text-anchor="start" transform="rotate(84.4 639.9 1005.0)" dominant-baseline="middle" fill-opacity="1.00">F17 Private space before planning</text>
<circle cx="600.0" cy="1000.0" r="4" fill="#3B7DD6" fill-opacity="1.0"/>
<text x="600.0" y="1007.0" fill="#e9ebff" font-size="9" text-anchor="start" transform="rotate(90.0 600.0 1007.0)" dominant-baseline="middle" fill-opacity="1.00">F18 Safety &amp; consent layer (CAP)</text>
<circle cx="560.8" cy="998.1" r="4" fill="#3B7DD6" fill-opacity="0.4"/>
<text x="561.5" y="991.1" fill="#e9ebff" font-size="9" text-anchor="end" transform="rotate(275.6 561.5 991.1)" dominant-baseline="middle" fill-opacity="0.60">F19 On-device private AI</text>
<circle cx="539.2" cy="737.1" r="5" fill="#2FB3A3"/>
<text x="543.7" y="727.1" fill="#fff" font-size="13" font-weight="700" text-anchor="end" transform="rotate(293.9 543.7 727.1)" dominant-baseline="middle">SCI</text>
<circle cx="520.2" cy="863.2" r="5" fill="#2FB3A3"/>
<circle cx="522.0" cy="992.3" r="4" fill="#2FB3A3" fill-opacity="0.4"/>
<text x="523.3" y="985.4" fill="#e9ebff" font-size="9" text-anchor="end" transform="rotate(281.2 523.3 985.4)" dominant-baseline="middle" fill-opacity="0.60">F25 Pre-send tone check-in</text>
<circle cx="483.9" cy="982.8" r="4" fill="#2FB3A3" fill-opacity="0.4" stroke="#fff" stroke-width="1.4" stroke-dasharray="2,2"/>
<text x="485.9" y="976.1" fill="#e9ebff" font-size="9" text-anchor="end" transform="rotate(286.9 485.9 976.1)" dominant-baseline="middle" fill-opacity="0.60">F42 Two-way communication bridge</text>
<circle cx="446.9" cy="969.6" r="4" fill="#2FB3A3" fill-opacity="0.4" stroke="#fff" stroke-width="1.4" stroke-dasharray="2,2"/>
<text x="449.6" y="963.1" fill="#e9ebff" font-size="9" text-anchor="end" transform="rotate(292.5 449.6 963.1)" dominant-baseline="middle" fill-opacity="0.60">F63 Invisible-disability advocacy mode</text>
<circle cx="458.6" cy="835.9" r="5" fill="#2FB3A3"/>
<circle cx="411.4" cy="952.8" r="4" fill="#2FB3A3" fill-opacity="0.4" stroke="#fff" stroke-width="1.4" stroke-dasharray="2,2"/>
<text x="414.7" y="946.6" fill="#e9ebff" font-size="9" text-anchor="end" transform="rotate(298.1 414.7 946.6)" dominant-baseline="middle" fill-opacity="0.60">F36 Co-planning with a trusted person</text>
<circle cx="377.8" cy="932.6" r="4" fill="#2FB3A3" fill-opacity="0.4" stroke="#fff" stroke-width="1.4" stroke-dasharray="2,2"/>
<text x="381.7" y="926.8" fill="#e9ebff" font-size="9" text-anchor="end" transform="rotate(303.8 381.7 926.8)" dominant-baseline="middle" fill-opacity="0.60">F56 Social connections &amp; your mood</text>
<circle cx="499.3" cy="711.1" r="5" fill="#E0A11B"/>
<text x="506.7" y="703.0" fill="#fff" font-size="13" font-weight="700" text-anchor="end" transform="rotate(312.2 506.7 703.0)" dominant-baseline="middle">SPR</text>
<circle cx="415.3" cy="803.8" r="5" fill="#E0A11B"/>
<circle cx="346.2" cy="909.2" r="4" fill="#E0A11B" fill-opacity="0.4"/>
<text x="350.7" y="903.8" fill="#e9ebff" font-size="9" text-anchor="end" transform="rotate(309.4 350.7 903.8)" dominant-baseline="middle" fill-opacity="0.60">F23 Read-aloud with highlighting</text>
<circle cx="317.2" cy="882.8" r="4" fill="#E0A11B" fill-opacity="0.4"/>
<text x="322.1" y="877.9" fill="#e9ebff" font-size="9" text-anchor="end" transform="rotate(315.0 322.1 877.9)" dominant-baseline="middle" fill-opacity="0.60">F37 Gentle context change cues</text>
<circle cx="452.2" cy="574.4" r="5" fill="#D6564F"/>
<text x="463.0" y="576.2" fill="#fff" font-size="13" font-weight="700" text-anchor="end" transform="rotate(369.8 463.0 576.2)" dominant-baseline="middle">CTO</text>
<circle cx="351.4" cy="717.6" r="5" fill="#D6564F"/>
<circle cx="290.8" cy="853.8" r="4" fill="#D6564F" fill-opacity="0.64"/>
<text x="296.2" y="849.3" fill="#e9ebff" font-size="9" text-anchor="end" transform="rotate(320.6 296.2 849.3)" dominant-baseline="middle" fill-opacity="0.64">F13 Voice-grown thought map</text>
<circle cx="267.4" cy="822.2" r="4" fill="#D6564F" fill-opacity="1.0"/>
<text x="273.2" y="818.3" fill="#e9ebff" font-size="9" text-anchor="end" transform="rotate(326.2 273.2 818.3)" dominant-baseline="middle" fill-opacity="1.00">F14 Thought placement assistant</text>
<circle cx="247.2" cy="788.6" r="4" fill="#D6564F" fill-opacity="1.0"/>
<text x="253.4" y="785.3" fill="#e9ebff" font-size="9" text-anchor="end" transform="rotate(331.9 253.4 785.3)" dominant-baseline="middle" fill-opacity="1.00">F15 Spatial thought map view</text>
<circle cx="230.4" cy="753.1" r="4" fill="#D6564F" fill-opacity="1.0"/>
<text x="236.9" y="750.4" fill="#e9ebff" font-size="9" text-anchor="end" transform="rotate(337.5 236.9 750.4)" dominant-baseline="middle" fill-opacity="1.00">F31 Thought map reviewer</text>
<circle cx="217.2" cy="716.1" r="4" fill="#D6564F" fill-opacity="0.4"/>
<text x="223.9" y="714.1" fill="#e9ebff" font-size="9" text-anchor="end" transform="rotate(343.1 223.9 714.1)" dominant-baseline="middle" fill-opacity="0.60">F47 Untangling parallel thoughts</text>
<circle cx="207.7" cy="678.0" r="4" fill="#D6564F" fill-opacity="0.74"/>
<text x="214.6" y="676.7" fill="#e9ebff" font-size="9" text-anchor="end" transform="rotate(348.8 214.6 676.7)" dominant-baseline="middle" fill-opacity="0.74">F60 Conversational thought map</text>
<circle cx="325.3" cy="586.5" r="5" fill="#D6564F"/>
<circle cx="201.9" cy="639.2" r="4" fill="#D6564F" fill-opacity="0.74"/>
<text x="208.9" y="638.5" fill="#e9ebff" font-size="9" text-anchor="end" transform="rotate(354.4 208.9 638.5)" dominant-baseline="middle" fill-opacity="0.74">F09 Structured note types</text>
<circle cx="200.0" cy="600.0" r="4" fill="#D6564F" fill-opacity="0.4"/>
<text x="207.0" y="600.0" fill="#e9ebff" font-size="9" text-anchor="end" transform="rotate(360.0 207.0 600.0)" dominant-baseline="middle" fill-opacity="0.60">F10 Saved smart searches</text>
<circle cx="201.9" cy="560.8" r="4" fill="#D6564F" fill-opacity="0.4"/>
<text x="208.9" y="561.5" fill="#e9ebff" font-size="9" text-anchor="end" transform="rotate(365.6 208.9 561.5)" dominant-baseline="middle" fill-opacity="0.60">F33 Your personal vocabulary</text>
<circle cx="207.7" cy="522.0" r="4" fill="#D6564F" fill-opacity="1.0"/>
<text x="214.6" y="523.3" fill="#e9ebff" font-size="9" text-anchor="end" transform="rotate(371.2 214.6 523.3)" dominant-baseline="middle" fill-opacity="1.00">F58 Names &amp; terms you use</text>
<circle cx="345.9" cy="494.8" r="5" fill="#D6564F"/>
<circle cx="217.2" cy="483.9" r="4" fill="#D6564F" fill-opacity="0.4"/>
<text x="223.9" y="485.9" fill="#e9ebff" font-size="9" text-anchor="end" transform="rotate(376.9 223.9 485.9)" dominant-baseline="middle" fill-opacity="0.60">F34 Map to document transform</text>
<circle cx="230.4" cy="446.9" r="4" fill="#D6564F" fill-opacity="0.4"/>
<text x="236.9" y="449.6" fill="#e9ebff" font-size="9" text-anchor="end" transform="rotate(382.5 236.9 449.6)" dominant-baseline="middle" fill-opacity="0.60">F50 Highlight &amp; link on any page</text>
<circle cx="247.2" cy="411.4" r="4" fill="#D6564F" fill-opacity="0.4"/>
<text x="253.4" y="414.7" fill="#e9ebff" font-size="9" text-anchor="end" transform="rotate(388.1 253.4 414.7)" dominant-baseline="middle" fill-opacity="0.60">F61 Thought to document templates</text>
<circle cx="387.4" cy="425.5" r="5" fill="#D6564F"/>
<circle cx="267.4" cy="377.8" r="4" fill="#D6564F" fill-opacity="1.0"/>
<text x="273.2" y="381.7" fill="#e9ebff" font-size="9" text-anchor="end" transform="rotate(393.8 273.2 381.7)" dominant-baseline="middle" fill-opacity="1.00">F16 Your data in your own tools</text>
<circle cx="290.8" cy="346.2" r="4" fill="#D6564F" fill-opacity="0.4"/>
<text x="296.2" y="350.7" fill="#e9ebff" font-size="9" text-anchor="end" transform="rotate(399.4 296.2 350.7)" dominant-baseline="middle" fill-opacity="0.60">F51 Open schema translation layer</text>
<circle cx="317.2" cy="317.2" r="4" fill="#D6564F" fill-opacity="1.0"/>
<text x="322.1" y="322.1" fill="#e9ebff" font-size="9" text-anchor="end" transform="rotate(405.0 322.1 322.1)" dominant-baseline="middle" fill-opacity="1.00">F52 Private local knowledge store</text>
<circle cx="547.2" cy="459.6" r="5" fill="#7D8CF0"/>
<text x="551.0" y="469.9" fill="#fff" font-size="13" font-weight="700" text-anchor="end" transform="rotate(429.4 551.0 469.9)" dominant-baseline="middle">SMI</text>
<circle cx="447.2" cy="371.3" r="5" fill="#7D8CF0"/>
<circle cx="346.2" cy="290.8" r="4" fill="#7D8CF0" fill-opacity="0.4"/>
<text x="350.7" y="296.2" fill="#e9ebff" font-size="9" text-anchor="end" transform="rotate(410.6 350.7 296.2)" dominant-baseline="middle" fill-opacity="0.60">F12 Open sensor connection layer (CSP)</text>
<circle cx="377.8" cy="267.4" r="4" fill="#7D8CF0" fill-opacity="0.4"/>
<text x="381.7" y="273.2" fill="#e9ebff" font-size="9" text-anchor="end" transform="rotate(416.2 381.7 273.2)" dominant-baseline="middle" fill-opacity="0.60">F30 Wearable sensor connection</text>
<circle cx="411.4" cy="247.2" r="4" fill="#7D8CF0" fill-opacity="0.4"/>
<text x="414.7" y="253.4" fill="#e9ebff" font-size="9" text-anchor="end" transform="rotate(421.9 414.7 253.4)" dominant-baseline="middle" fill-opacity="0.60">F46 Brain sensor connection layer</text>
<circle cx="507.4" cy="341.1" r="5" fill="#7D8CF0"/>
<circle cx="446.9" cy="230.4" r="4" fill="#7D8CF0" fill-opacity="0.4"/>
<text x="449.6" y="236.9" fill="#e9ebff" font-size="9" text-anchor="end" transform="rotate(427.5 449.6 236.9)" dominant-baseline="middle" fill-opacity="0.60">F55 Your custom tracking axes</text>
<circle cx="483.9" cy="217.2" r="4" fill="#7D8CF0" fill-opacity="0.4" stroke="#fff" stroke-width="1.4" stroke-dasharray="2,2"/>
<text x="485.9" y="223.9" fill="#e9ebff" font-size="9" text-anchor="end" transform="rotate(433.1 485.9 223.9)" dominant-baseline="middle" fill-opacity="0.60">F62 Opt-in self-assessment tools</text>
<circle cx="559.6" cy="328.0" r="5" fill="#7D8CF0"/>
<circle cx="522.0" cy="207.7" r="4" fill="#7D8CF0" fill-opacity="1.0"/>
<text x="523.3" y="214.6" fill="#e9ebff" font-size="9" text-anchor="end" transform="rotate(438.8 523.3 214.6)" dominant-baseline="middle" fill-opacity="1.00">F39 Personalized gentle nudges</text>
<circle cx="560.8" cy="201.9" r="4" fill="#7D8CF0" fill-opacity="0.4"/>
<text x="561.5" y="208.9" fill="#e9ebff" font-size="9" text-anchor="end" transform="rotate(444.4 561.5 208.9)" dominant-baseline="middle" fill-opacity="0.60">F43 Layered wellbeing dashboard</text>
<rect x="24" y="1158" width="13" height="13" rx="3" fill="#8B3FC7"/>
<text x="42" y="1170" fill="#a9abce" font-size="12">AEF</text>
<rect x="174" y="1158" width="13" height="13" rx="3" fill="#3B7DD6"/>
<text x="192" y="1170" fill="#a9abce" font-size="12">ERM</text>
<rect x="324" y="1158" width="13" height="13" rx="3" fill="#2FB3A3"/>
<text x="342" y="1170" fill="#a9abce" font-size="12">SCI</text>
<rect x="474" y="1158" width="13" height="13" rx="3" fill="#E0A11B"/>
<text x="492" y="1170" fill="#a9abce" font-size="12">SPR</text>
<rect x="624" y="1158" width="13" height="13" rx="3" fill="#D6564F"/>
<text x="642" y="1170" fill="#a9abce" font-size="12">CTO</text>
<rect x="774" y="1158" width="13" height="13" rx="3" fill="#7D8CF0"/>
<text x="792" y="1170" fill="#a9abce" font-size="12">SMI</text>
</svg>