<svg xmlns="http://www.w3.org/2000/svg" viewBox="0 0 1200 1200" font-family="Segoe UI,Helvetica,Arial,sans-serif">
<rect width="1200" height="1200" fill="#0f1020"/>
<text x="24" y="34" fill="#f4f4fb" font-size="20" font-weight="700">Yar &#8212; Universal Feature Hierarchy (radial dendrogram)</text>
<text x="24" y="54" fill="#a9abce" font-size="12">Root &#8250; 6 domains &#8250; 19 clusters &#8250; 62 features. Color = domain; opacity = build status; dashed ring = safety-gated.</text>
<path d="M600.0,600.0 L712.4,500.6" stroke="#3a3c63" stroke-opacity="0.5" fill="none"/>
<path d="M712.4,500.6 L637.4,327.6" stroke="#3a3c63" stroke-opacity="0.5" fill="none"/>
<path d="M637.4,327.6 L600.0,200.0" stroke="#3a3c63" stroke-opacity="0.5" fill="none"/>
<path d="M637.4,327.6 L636.4,201.7" stroke="#3a3c63" stroke-opacity="0.5" fill="none"/>
<path d="M637.4,327.6 L672.4,206.6" stroke="#3a3c63" stroke-opacity="0.5" fill="none"/>
<path d="M637.4,327.6 L707.9,214.8" stroke="#3a3c63" stroke-opacity="0.5" fill="none"/>
<path d="M712.4,500.6 L720.9,353.0" stroke="#3a3c63" stroke-opacity="0.5" fill="none"/>
<path d="M720.9,353.0 L742.5,226.2" stroke="#3a3c63" stroke-opacity="0.5" fill="none"/>
<path d="M720.9,353.0 L775.9,240.7" stroke="#3a3c63" stroke-opacity="0.5" fill="none"/>
<path d="M720.9,353.0 L807.8,258.2" stroke="#3a3c63" stroke-opacity="0.5" fill="none"/>
<path d="M712.4,500.6 L809.3,421.6" stroke="#3a3c63" stroke-opacity="0.5" fill="none"/>
<path d="M809.3,421.6 L838.1,278.5" stroke="#3a3c63" stroke-opacity="0.5" fill="none"/>
<path d="M809.3,421.6 L866.3,301.5" stroke="#3a3c63" stroke-opacity="0.5" fill="none"/>
<path d="M809.3,421.6 L892.3,327.0" stroke="#3a3c63" stroke-opacity="0.5" fill="none"/>
<path d="M809.3,421.6 L916.0,354.7" stroke="#3a3c63" stroke-opacity="0.5" fill="none"/>
<path d="M809.3,421.6 L936.9,384.4" stroke="#3a3c63" stroke-opacity="0.5" fill="none"/>
<path d="M809.3,421.6 L955.2,416.0" stroke="#3a3c63" stroke-opacity="0.5" fill="none"/>
<path d="M712.4,500.6 L863.0,519.8" stroke="#3a3c63" stroke-opacity="0.5" fill="none"/>
<path d="M863.0,519.8 L970.4,449.0" stroke="#3a3c63" stroke-opacity="0.5" fill="none"/>
<path d="M863.0,519.8 L982.6,483.3" stroke="#3a3c63" stroke-opacity="0.5" fill="none"/>
<path d="M863.0,519.8 L991.6,518.6" stroke="#3a3c63" stroke-opacity="0.5" fill="none"/>
<path d="M712.4,500.6 L874.4,581.2" stroke="#3a3c63" stroke-opacity="0.5" fill="none"/>
<path d="M874.4,581.2 L997.4,554.6" stroke="#3a3c63" stroke-opacity="0.5" fill="none"/>
<path d="M874.4,581.2 L999.9,590.9" stroke="#3a3c63" stroke-opacity="0.5" fill="none"/>
<path d="M600.0,600.0 L694.7,716.4" stroke="#3a3c63" stroke-opacity="0.5" fill="none"/>
<path d="M694.7,716.4 L866.4,668.1" stroke="#3a3c63" stroke-opacity="0.5" fill="none"/>
<path d="M866.4,668.1 L999.1,627.3" stroke="#3a3c63" stroke-opacity="0.5" fill="none"/>
<path d="M866.4,668.1 L994.9,663.5" stroke="#3a3c63" stroke-opacity="0.5" fill="none"/>
<path d="M866.4,668.1 L987.5,699.1" stroke="#3a3c63" stroke-opacity="0.5" fill="none"/>
<path d="M866.4,668.1 L976.9,734.0" stroke="#3a3c63" stroke-opacity="0.5" fill="none"/>
<path d="M866.4,668.1 L963.2,767.7" stroke="#3a3c63" stroke-opacity="0.5" fill="none"/>
<path d="M694.7,716.4 L817.2,768.6" stroke="#3a3c63" stroke-opacity="0.5" fill="none"/>
<path d="M817.2,768.6 L946.4,800.0" stroke="#3a3c63" stroke-opacity="0.5" fill="none"/>
<path d="M817.2,768.6 L926.8,830.7" stroke="#3a3c63" stroke-opacity="0.5" fill="none"/>
<path d="M817.2,768.6 L904.5,859.4" stroke="#3a3c63" stroke-opacity="0.5" fill="none"/>
<path d="M817.2,768.6 L879.6,886.0" stroke="#3a3c63" stroke-opacity="0.5" fill="none"/>
<path d="M694.7,716.4 L720.9,847.0" stroke="#3a3c63" stroke-opacity="0.5" fill="none"/>
<path d="M720.9,847.0 L852.4,910.3" stroke="#3a3c63" stroke-opacity="0.5" fill="none"/>
<path d="M720.9,847.0 L823.2,932.0" stroke="#3a3c63" stroke-opacity="0.5" fill="none"/>
<path d="M720.9,847.0 L792.1,950.9" stroke="#3a3c63" stroke-opacity="0.5" fill="none"/>
<path d="M720.9,847.0 L759.4,966.9" stroke="#3a3c63" stroke-opacity="0.5" fill="none"/>
<path d="M720.9,847.0 L725.3,979.9" stroke="#3a3c63" stroke-opacity="0.5" fill="none"/>
<path d="M720.9,847.0 L690.3,989.7" stroke="#3a3c63" stroke-opacity="0.5" fill="none"/>
<path d="M694.7,716.4 L612.5,874.7" stroke="#3a3c63" stroke-opacity="0.5" fill="none"/>
<path d="M612.5,874.7 L654.5,996.3" stroke="#3a3c63" stroke-opacity="0.5" fill="none"/>
<path d="M612.5,874.7 L618.2,999.6" stroke="#3a3c63" stroke-opacity="0.5" fill="none"/>
<path d="M612.5,874.7 L581.8,999.6" stroke="#3a3c63" stroke-opacity="0.5" fill="none"/>
<path d="M600.0,600.0 L549.8,741.3" stroke="#3a3c63" stroke-opacity="0.5" fill="none"/>
<path d="M549.8,741.3 L537.9,867.9" stroke="#3a3c63" stroke-opacity="0.5" fill="none"/>
<path d="M537.9,867.9 L545.5,996.3" stroke="#3a3c63" stroke-opacity="0.5" fill="none"/>
<path d="M537.9,867.9 L509.7,989.7" stroke="#3a3c63" stroke-opacity="0.5" fill="none"/>
<path d="M537.9,867.9 L474.7,979.9" stroke="#3a3c63" stroke-opacity="0.5" fill="none"/>
<path d="M549.8,741.3 L479.1,847.0" stroke="#3a3c63" stroke-opacity="0.5" fill="none"/>
<path d="M479.1,847.0 L440.6,966.9" stroke="#3a3c63" stroke-opacity="0.5" fill="none"/>
<path d="M479.1,847.0 L407.9,950.9" stroke="#3a3c63" stroke-opacity="0.5" fill="none"/>
<path d="M600.0,600.0 L510.7,720.5" stroke="#3a3c63" stroke-opacity="0.5" fill="none"/>
<path d="M510.7,720.5 L436.3,821.0" stroke="#3a3c63" stroke-opacity="0.5" fill="none"/>
<path d="M436.3,821.0 L376.8,932.0" stroke="#3a3c63" stroke-opacity="0.5" fill="none"/>
<path d="M436.3,821.0 L347.6,910.3" stroke="#3a3c63" stroke-opacity="0.5" fill="none"/>
<path d="M600.0,600.0 L450.2,591.5" stroke="#3a3c63" stroke-opacity="0.5" fill="none"/>
<path d="M450.2,591.5 L368.3,748.2" stroke="#3a3c63" stroke-opacity="0.5" fill="none"/>
<path d="M368.3,748.2 L320.4,886.0" stroke="#3a3c63" stroke-opacity="0.5" fill="none"/>
<path d="M368.3,748.2 L295.5,859.4" stroke="#3a3c63" stroke-opacity="0.5" fill="none"/>
<path d="M368.3,748.2 L273.2,830.7" stroke="#3a3c63" stroke-opacity="0.5" fill="none"/>
<path d="M368.3,748.2 L253.6,800.0" stroke="#3a3c63" stroke-opacity="0.5" fill="none"/>
<path d="M368.3,748.2 L236.8,767.7" stroke="#3a3c63" stroke-opacity="0.5" fill="none"/>
<path d="M368.3,748.2 L223.1,734.0" stroke="#3a3c63" stroke-opacity="0.5" fill="none"/>
<path d="M450.2,591.5 L326.8,631.2" stroke="#3a3c63" stroke-opacity="0.5" fill="none"/>
<path d="M326.8,631.2 L212.5,699.1" stroke="#3a3c63" stroke-opacity="0.5" fill="none"/>
<path d="M326.8,631.2 L205.1,663.5" stroke="#3a3c63" stroke-opacity="0.5" fill="none"/>
<path d="M326.8,631.2 L200.9,627.3" stroke="#3a3c63" stroke-opacity="0.5" fill="none"/>
<path d="M326.8,631.2 L200.1,590.9" stroke="#3a3c63" stroke-opacity="0.5" fill="none"/>
<path d="M450.2,591.5 L333.6,531.9" stroke="#3a3c63" stroke-opacity="0.5" fill="none"/>
<path d="M333.6,531.9 L202.6,554.6" stroke="#3a3c63" stroke-opacity="0.5" fill="none"/>
<path d="M333.6,531.9 L208.4,518.6" stroke="#3a3c63" stroke-opacity="0.5" fill="none"/>
<path d="M333.6,531.9 L217.4,483.3" stroke="#3a3c63" stroke-opacity="0.5" fill="none"/>
<path d="M333.6,531.9 L229.6,449.0" stroke="#3a3c63" stroke-opacity="0.5" fill="none"/>
<path d="M450.2,591.5 L382.8,431.4" stroke="#3a3c63" stroke-opacity="0.5" fill="none"/>
<path d="M382.8,431.4 L244.8,416.0" stroke="#3a3c63" stroke-opacity="0.5" fill="none"/>
<path d="M382.8,431.4 L263.1,384.4" stroke="#3a3c63" stroke-opacity="0.5" fill="none"/>
<path d="M382.8,431.4 L284.0,354.7" stroke="#3a3c63" stroke-opacity="0.5" fill="none"/>
<path d="M382.8,431.4 L307.7,327.0" stroke="#3a3c63" stroke-opacity="0.5" fill="none"/>
<path d="M382.8,431.4 L333.7,301.5" stroke="#3a3c63" stroke-opacity="0.5" fill="none"/>
<path d="M600.0,600.0 L550.8,458.3" stroke="#3a3c63" stroke-opacity="0.5" fill="none"/>
<path d="M550.8,458.3 L457.1,365.0" stroke="#3a3c63" stroke-opacity="0.5" fill="none"/>
<path d="M457.1,365.0 L361.9,278.5" stroke="#3a3c63" stroke-opacity="0.5" fill="none"/>
<path d="M457.1,365.0 L392.2,258.2" stroke="#3a3c63" stroke-opacity="0.5" fill="none"/>
<path d="M457.1,365.0 L424.1,240.7" stroke="#3a3c63" stroke-opacity="0.5" fill="none"/>
<path d="M550.8,458.3 L513.8,338.8" stroke="#3a3c63" stroke-opacity="0.5" fill="none"/>
<path d="M513.8,338.8 L457.5,226.2" stroke="#3a3c63" stroke-opacity="0.5" fill="none"/>
<path d="M513.8,338.8 L492.1,214.8" stroke="#3a3c63" stroke-opacity="0.5" fill="none"/>
<path d="M550.8,458.3 L562.6,327.6" stroke="#3a3c63" stroke-opacity="0.5" fill="none"/>
<path d="M562.6,327.6 L527.6,206.6" stroke="#3a3c63" stroke-opacity="0.5" fill="none"/>
<path d="M562.6,327.6 L563.6,201.7" stroke="#3a3c63" stroke-opacity="0.5" fill="none"/>
<circle cx="600.0" cy="600.0" r="6" fill="#ffffff"/>
<circle cx="712.4" cy="500.6" r="5" fill="#8B3FC7"/>
<text x="720.6" y="493.4" fill="#fff" font-size="13" font-weight="700" text-anchor="start" transform="rotate(-41.5 720.6 493.4)" dominant-baseline="middle">AEF</text>
<circle cx="637.4" cy="327.6" r="5" fill="#8B3FC7"/>
<circle cx="600.0" cy="200.0" r="4" fill="#8B3FC7" fill-opacity="1.0"/>
<text x="600.0" y="193.0" fill="#e9ebff" font-size="9" text-anchor="start" transform="rotate(-90.0 600.0 193.0)" dominant-baseline="middle" fill-opacity="1.00">F01 Voice brain dump</text>
<circle cx="636.4" cy="201.7" r="4" fill="#8B3FC7" fill-opacity="1.0"/>
<text x="637.0" y="194.7" fill="#e9ebff" font-size="9" text-anchor="start" transform="rotate(-84.8 637.0 194.7)" dominant-baseline="middle" fill-opacity="1.00">F32 Stray thought capture</text>
<circle cx="672.4" cy="206.6" r="4" fill="#8B3FC7" fill-opacity="0.64"/>
<text x="673.7" y="199.7" fill="#e9ebff" font-size="9" text-anchor="start" transform="rotate(-79.6 673.7 199.7)" dominant-baseline="middle" fill-opacity="0.64">F59 Capture from anywhere</text>
<circle cx="707.9" cy="214.8" r="4" fill="#8B3FC7" fill-opacity="0.4" stroke="#fff" stroke-width="1.4" stroke-dasharray="2,2"/>
<text x="709.8" y="208.1" fill="#e9ebff" font-size="9" text-anchor="start" transform="rotate(-74.3 709.8 208.1)" dominant-baseline="middle" fill-opacity="0.60">F69 Meeting-mode diarization</text>
<circle cx="720.9" cy="353.0" r="5" fill="#8B3FC7"/>
<circle cx="742.5" cy="226.2" r="4" fill="#8B3FC7" fill-opacity="1.0"/>
<text x="745.0" y="219.7" fill="#e9ebff" font-size="9" text-anchor="start" transform="rotate(-69.1 745.0 219.7)" dominant-baseline="middle" fill-opacity="1.00">F02 Brain dump to action plan</text>
<circle cx="775.9" cy="240.7" r="4" fill="#8B3FC7" fill-opacity="1.0"/>
<text x="779.0" y="234.5" fill="#e9ebff" font-size="9" text-anchor="start" transform="rotate(-63.9 779.0 234.5)" dominant-baseline="middle" fill-opacity="1.00">F03 Tasks from your words</text>
<circle cx="807.8" cy="258.2" r="4" fill="#8B3FC7" fill-opacity="1.0"/>
<text x="811.5" y="252.3" fill="#e9ebff" font-size="9" text-anchor="start" transform="rotate(-58.7 811.5 252.3)" dominant-baseline="middle" fill-opacity="1.00">F04 Right-sized task breakdown</text>
<circle cx="809.3" cy="421.6" r="5" fill="#8B3FC7"/>
<circle cx="838.1" cy="278.5" r="4" fill="#8B3FC7" fill-opacity="1.0"/>
<text x="842.2" y="272.9" fill="#e9ebff" font-size="9" text-anchor="start" transform="rotate(-53.5 842.2 272.9)" dominant-baseline="middle" fill-opacity="1.00">F06 Focus companion &amp; body doubling</text>
<circle cx="866.3" cy="301.5" r="4" fill="#8B3FC7" fill-opacity="0.4"/>
<text x="871.0" y="296.3" fill="#e9ebff" font-size="9" text-anchor="start" transform="rotate(-48.3 871.0 296.3)" dominant-baseline="middle" fill-opacity="0.60">F20 Single-task focus mode</text>
<circle cx="892.3" cy="327.0" r="4" fill="#8B3FC7" fill-opacity="0.4"/>
<text x="897.5" y="322.2" fill="#e9ebff" font-size="9" text-anchor="start" transform="rotate(-43.0 897.5 322.2)" dominant-baseline="middle" fill-opacity="0.60">F21 Graceful activity pause</text>
<circle cx="916.0" cy="354.7" r="4" fill="#8B3FC7" fill-opacity="0.4"/>
<text x="921.5" y="350.4" fill="#e9ebff" font-size="9" text-anchor="start" transform="rotate(-37.8 921.5 350.4)" dominant-baseline="middle" fill-opacity="0.60">F22 Gentle break prompts</text>
<circle cx="936.9" cy="384.4" r="4" fill="#8B3FC7" fill-opacity="0.4"/>
<text x="942.8" y="380.7" fill="#e9ebff" font-size="9" text-anchor="start" transform="rotate(-32.6 942.8 380.7)" dominant-baseline="middle" fill-opacity="0.60">F26 Floating task reminder</text>
<circle cx="955.2" cy="416.0" r="4" fill="#8B3FC7" fill-opacity="0.4" stroke="#fff" stroke-width="1.4" stroke-dasharray="2,2"/>
<text x="961.4" y="412.8" fill="#e9ebff" font-size="9" text-anchor="start" transform="rotate(-27.4 961.4 412.8)" dominant-baseline="middle" fill-opacity="0.60">F65 Focus &amp; adherence guardian</text>
<circle cx="863.0" cy="519.8" r="5" fill="#8B3FC7"/>
<circle cx="970.4" cy="449.0" r="4" fill="#8B3FC7" fill-opacity="1.0"/>
<text x="976.9" y="446.4" fill="#e9ebff" font-size="9" text-anchor="start" transform="rotate(-22.2 976.9 446.4)" dominant-baseline="middle" fill-opacity="1.00">F07 Flexible plan with a backup track</text>
<circle cx="982.6" cy="483.3" r="4" fill="#8B3FC7" fill-opacity="0.4"/>
<text x="989.3" y="481.3" fill="#e9ebff" font-size="9" text-anchor="start" transform="rotate(-17.0 989.3 481.3)" dominant-baseline="middle" fill-opacity="0.60">F24 AI morning plan</text>
<circle cx="991.6" cy="518.6" r="4" fill="#8B3FC7" fill-opacity="0.4"/>
<text x="998.5" y="517.2" fill="#e9ebff" font-size="9" text-anchor="start" transform="rotate(-11.7 998.5 517.2)" dominant-baseline="middle" fill-opacity="0.60">F64 Personal compass (gentle goals)</text>
<circle cx="874.4" cy="581.2" r="5" fill="#8B3FC7"/>
<circle cx="997.4" cy="554.6" r="4" fill="#8B3FC7" fill-opacity="0.4" stroke="#fff" stroke-width="1.4" stroke-dasharray="2,2"/>
<text x="1004.4" y="553.8" fill="#e9ebff" font-size="9" text-anchor="start" transform="rotate(-6.5 1004.4 553.8)" dominant-baseline="middle" fill-opacity="0.60">F28 Open data connections (MCP)</text>
<circle cx="999.9" cy="590.9" r="4" fill="#8B3FC7" fill-opacity="0.4"/>
<text x="1006.9" y="590.7" fill="#e9ebff" font-size="9" text-anchor="start" transform="rotate(-1.3 1006.9 590.7)" dominant-baseline="middle" fill-opacity="0.60">F41 All-in-one ND support app</text>
<circle cx="694.7" cy="716.4" r="5" fill="#3B7DD6"/>
<text x="701.6" y="724.9" fill="#fff" font-size="13" font-weight="700" text-anchor="start" transform="rotate(50.9 701.6 724.9)" dominant-baseline="middle">ERM</text>
<circle cx="866.4" cy="668.1" r="5" fill="#3B7DD6"/>
<circle cx="999.1" cy="627.3" r="4" fill="#3B7DD6" fill-opacity="1.0"/>
<text x="1006.1" y="627.8" fill="#e9ebff" font-size="9" text-anchor="start" transform="rotate(3.9 1006.1 627.8)" dominant-baseline="middle" fill-opacity="1.00">F05 Your energy &amp; mood map</text>
<circle cx="994.9" cy="663.5" r="4" fill="#3B7DD6" fill-opacity="1.0"/>
<text x="1001.8" y="664.6" fill="#e9ebff" font-size="9" text-anchor="start" transform="rotate(9.1 1001.8 664.6)" dominant-baseline="middle" fill-opacity="1.00">F08 Mood tag on tasks</text>
<circle cx="987.5" cy="699.1" r="4" fill="#3B7DD6" fill-opacity="0.4" stroke="#fff" stroke-width="1.4" stroke-dasharray="2,2"/>
<text x="994.3" y="700.9" fill="#e9ebff" font-size="9" text-anchor="start" transform="rotate(14.3 994.3 700.9)" dominant-baseline="middle" fill-opacity="0.60">F40 Voice wellbeing signals (research)</text>
<circle cx="976.9" cy="734.0" r="4" fill="#3B7DD6" fill-opacity="1.0"/>
<text x="983.5" y="736.3" fill="#e9ebff" font-size="9" text-anchor="start" transform="rotate(19.6 983.5 736.3)" dominant-baseline="middle" fill-opacity="1.00">F53 Mood-anchored morning check-in</text>
<circle cx="963.2" cy="767.7" r="4" fill="#3B7DD6" fill-opacity="0.54"/>
<text x="969.5" y="770.6" fill="#e9ebff" font-size="9" text-anchor="start" transform="rotate(24.8 969.5 770.6)" dominant-baseline="middle" fill-opacity="0.60">F54 Voice mood awareness</text>
<circle cx="817.2" cy="768.6" r="5" fill="#3B7DD6"/>
<circle cx="946.4" cy="800.0" r="4" fill="#3B7DD6" fill-opacity="1.0"/>
<text x="952.5" y="803.5" fill="#e9ebff" font-size="9" text-anchor="start" transform="rotate(30.0 952.5 803.5)" dominant-baseline="middle" fill-opacity="1.00">F11 Companion style &amp; voice</text>
<circle cx="926.8" cy="830.7" r="4" fill="#3B7DD6" fill-opacity="0.4"/>
<text x="932.5" y="834.7" fill="#e9ebff" font-size="9" text-anchor="start" transform="rotate(35.2 932.5 834.7)" dominant-baseline="middle" fill-opacity="0.60">F29 Companion that learns your style</text>
<circle cx="904.5" cy="859.4" r="4" fill="#3B7DD6" fill-opacity="0.4"/>
<text x="909.8" y="864.0" fill="#e9ebff" font-size="9" text-anchor="start" transform="rotate(40.4 909.8 864.0)" dominant-baseline="middle" fill-opacity="0.60">F45 Mood-matched companion</text>
<circle cx="879.6" cy="886.0" r="4" fill="#3B7DD6" fill-opacity="0.64"/>
<text x="884.5" y="891.0" fill="#e9ebff" font-size="9" text-anchor="start" transform="rotate(45.7 884.5 891.0)" dominant-baseline="middle" fill-opacity="0.64">F57 Adaptive companion that builds trust</text>
<circle cx="720.9" cy="847.0" r="5" fill="#3B7DD6"/>
<circle cx="852.4" cy="910.3" r="4" fill="#3B7DD6" fill-opacity="1.0" stroke="#fff" stroke-width="1.4" stroke-dasharray="2,2"/>
<text x="856.9" y="915.7" fill="#e9ebff" font-size="9" text-anchor="start" transform="rotate(50.9 856.9 915.7)" dominant-baseline="middle" fill-opacity="1.00">F27 Rest day support</text>
<circle cx="823.2" cy="932.0" r="4" fill="#3B7DD6" fill-opacity="0.4"/>
<text x="827.1" y="937.8" fill="#e9ebff" font-size="9" text-anchor="start" transform="rotate(56.1 827.1 937.8)" dominant-baseline="middle" fill-opacity="0.60">F35 Energy check before saying yes</text>
<circle cx="792.1" cy="950.9" r="4" fill="#3B7DD6" fill-opacity="0.4"/>
<text x="795.4" y="957.0" fill="#e9ebff" font-size="9" text-anchor="start" transform="rotate(61.3 795.4 957.0)" dominant-baseline="middle" fill-opacity="0.60">F38 No-penalty plan change</text>
<circle cx="759.4" cy="966.9" r="4" fill="#3B7DD6" fill-opacity="1.0"/>
<text x="762.1" y="973.3" fill="#e9ebff" font-size="9" text-anchor="start" transform="rotate(66.5 762.1 973.3)" dominant-baseline="middle" fill-opacity="1.00">F44 Streaks that honor rest days</text>
<circle cx="725.3" cy="979.9" r="4" fill="#3B7DD6" fill-opacity="0.4" stroke="#fff" stroke-width="1.4" stroke-dasharray="2,2"/>
<text x="727.5" y="986.5" fill="#e9ebff" font-size="9" text-anchor="start" transform="rotate(71.7 727.5 986.5)" dominant-baseline="middle" fill-opacity="0.60">F48 Gentle reset after a hard day</text>
<circle cx="690.3" cy="989.7" r="4" fill="#3B7DD6" fill-opacity="0.4"/>
<text x="691.9" y="996.5" fill="#e9ebff" font-size="9" text-anchor="start" transform="rotate(77.0 691.9 996.5)" dominant-baseline="middle" fill-opacity="0.60">F49 Your week as a story</text>
<circle cx="612.5" cy="874.7" r="5" fill="#3B7DD6"/>
<circle cx="654.5" cy="996.3" r="4" fill="#3B7DD6" fill-opacity="1.0"/>
<text x="655.4" y="1003.2" fill="#e9ebff" font-size="9" text-anchor="start" transform="rotate(82.2 655.4 1003.2)" dominant-baseline="middle" fill-opacity="1.00">F17 Private space before planning</text>
<circle cx="618.2" cy="999.6" r="4" fill="#3B7DD6" fill-opacity="1.0"/>
<text x="618.5" y="1006.6" fill="#e9ebff" font-size="9" text-anchor="start" transform="rotate(87.4 618.5 1006.6)" dominant-baseline="middle" fill-opacity="1.00">F18 Safety &amp; consent layer (CAP)</text>
<circle cx="581.8" cy="999.6" r="4" fill="#3B7DD6" fill-opacity="0.4"/>
<text x="582.1" y="992.6" fill="#e9ebff" font-size="9" text-anchor="end" transform="rotate(272.6 582.1 992.6)" dominant-baseline="middle" fill-opacity="0.60">F19 On-device private AI</text>
<circle cx="549.8" cy="741.3" r="5" fill="#2FB3A3"/>
<text x="553.5" y="731.0" fill="#fff" font-size="13" font-weight="700" text-anchor="end" transform="rotate(289.6 553.5 731.0)" dominant-baseline="middle">SCI</text>
<circle cx="537.9" cy="867.9" r="5" fill="#2FB3A3"/>
<circle cx="545.5" cy="996.3" r="4" fill="#2FB3A3" fill-opacity="0.4"/>
<text x="546.5" y="989.3" fill="#e9ebff" font-size="9" text-anchor="end" transform="rotate(277.8 546.5 989.3)" dominant-baseline="middle" fill-opacity="0.60">F25 Pre-send tone check-in</text>
<circle cx="509.7" cy="989.7" r="4" fill="#2FB3A3" fill-opacity="0.4" stroke="#fff" stroke-width="1.4" stroke-dasharray="2,2"/>
<text x="511.3" y="982.9" fill="#e9ebff" font-size="9" text-anchor="end" transform="rotate(283.0 511.3 982.9)" dominant-baseline="middle" fill-opacity="0.60">F42 Two-way communication bridge</text>
<circle cx="474.7" cy="979.9" r="4" fill="#2FB3A3" fill-opacity="0.4" stroke="#fff" stroke-width="1.4" stroke-dasharray="2,2"/>
<text x="476.9" y="973.2" fill="#e9ebff" font-size="9" text-anchor="end" transform="rotate(288.3 476.9 973.2)" dominant-baseline="middle" fill-opacity="0.60">F63 Invisible-disability advocacy mode</text>
<circle cx="479.1" cy="847.0" r="5" fill="#2FB3A3"/>
<circle cx="440.6" cy="966.9" r="4" fill="#2FB3A3" fill-opacity="0.4" stroke="#fff" stroke-width="1.4" stroke-dasharray="2,2"/>
<text x="443.4" y="960.5" fill="#e9ebff" font-size="9" text-anchor="end" transform="rotate(293.5 443.4 960.5)" dominant-baseline="middle" fill-opacity="0.60">F36 Co-planning with a trusted person</text>
<circle cx="407.9" cy="950.9" r="4" fill="#2FB3A3" fill-opacity="0.4" stroke="#fff" stroke-width="1.4" stroke-dasharray="2,2"/>
<text x="411.3" y="944.7" fill="#e9ebff" font-size="9" text-anchor="end" transform="rotate(298.7 411.3 944.7)" dominant-baseline="middle" fill-opacity="0.60">F56 Social connections &amp; your mood</text>
<circle cx="510.7" cy="720.5" r="5" fill="#E0A11B"/>
<text x="517.3" y="711.7" fill="#fff" font-size="13" font-weight="700" text-anchor="end" transform="rotate(306.5 517.3 711.7)" dominant-baseline="middle">SPR</text>
<circle cx="436.3" cy="821.0" r="5" fill="#E0A11B"/>
<circle cx="376.8" cy="932.0" r="4" fill="#E0A11B" fill-opacity="0.4"/>
<text x="380.7" y="926.1" fill="#e9ebff" font-size="9" text-anchor="end" transform="rotate(303.9 380.7 926.1)" dominant-baseline="middle" fill-opacity="0.60">F23 Read-aloud with highlighting</text>
<circle cx="347.6" cy="910.3" r="4" fill="#E0A11B" fill-opacity="0.4"/>
<text x="352.0" y="904.9" fill="#e9ebff" font-size="9" text-anchor="end" transform="rotate(309.1 352.0 904.9)" dominant-baseline="middle" fill-opacity="0.60">F37 Gentle context change cues</text>
<circle cx="450.2" cy="591.5" r="5" fill="#D6564F"/>
<text x="461.2" y="592.1" fill="#fff" font-size="13" font-weight="700" text-anchor="end" transform="rotate(363.3 461.2 592.1)" dominant-baseline="middle">CTO</text>
<circle cx="368.3" cy="748.2" r="5" fill="#D6564F"/>
<circle cx="320.4" cy="886.0" r="4" fill="#D6564F" fill-opacity="0.64"/>
<text x="325.3" y="881.0" fill="#e9ebff" font-size="9" text-anchor="end" transform="rotate(314.3 325.3 881.0)" dominant-baseline="middle" fill-opacity="0.64">F13 Voice-grown thought map</text>
<circle cx="295.5" cy="859.4" r="4" fill="#D6564F" fill-opacity="1.0"/>
<text x="300.9" y="854.9" fill="#e9ebff" font-size="9" text-anchor="end" transform="rotate(319.6 300.9 854.9)" dominant-baseline="middle" fill-opacity="1.00">F14 Thought placement assistant</text>
<circle cx="273.2" cy="830.7" r="4" fill="#D6564F" fill-opacity="1.0"/>
<text x="278.9" y="826.6" fill="#e9ebff" font-size="9" text-anchor="end" transform="rotate(324.8 278.9 826.6)" dominant-baseline="middle" fill-opacity="1.00">F15 Spatial thought map view</text>
<circle cx="253.6" cy="800.0" r="4" fill="#D6564F" fill-opacity="1.0"/>
<text x="259.7" y="796.5" fill="#e9ebff" font-size="9" text-anchor="end" transform="rotate(330.0 259.7 796.5)" dominant-baseline="middle" fill-opacity="1.00">F31 Thought map reviewer</text>
<circle cx="236.8" cy="767.7" r="4" fill="#D6564F" fill-opacity="0.4"/>
<text x="243.2" y="764.7" fill="#e9ebff" font-size="9" text-anchor="end" transform="rotate(335.2 243.2 764.7)" dominant-baseline="middle" fill-opacity="0.60">F47 Untangling parallel thoughts</text>
<circle cx="223.1" cy="734.0" r="4" fill="#D6564F" fill-opacity="0.74"/>
<text x="229.7" y="731.6" fill="#e9ebff" font-size="9" text-anchor="end" transform="rotate(340.4 229.7 731.6)" dominant-baseline="middle" fill-opacity="0.74">F60 Conversational thought map</text>
<circle cx="326.8" cy="631.2" r="5" fill="#D6564F"/>
<circle cx="212.5" cy="699.1" r="4" fill="#D6564F" fill-opacity="0.74"/>
<text x="219.3" y="697.4" fill="#e9ebff" font-size="9" text-anchor="end" transform="rotate(345.7 219.3 697.4)" dominant-baseline="middle" fill-opacity="0.74">F09 Structured note types</text>
<circle cx="205.1" cy="663.5" r="4" fill="#D6564F" fill-opacity="0.4"/>
<text x="212.0" y="662.4" fill="#e9ebff" font-size="9" text-anchor="end" transform="rotate(350.9 212.0 662.4)" dominant-baseline="middle" fill-opacity="0.60">F10 Saved smart searches</text>
<circle cx="200.9" cy="627.3" r="4" fill="#D6564F" fill-opacity="0.4"/>
<text x="207.9" y="626.8" fill="#e9ebff" font-size="9" text-anchor="end" transform="rotate(356.1 207.9 626.8)" dominant-baseline="middle" fill-opacity="0.60">F33 Your personal vocabulary</text>
<circle cx="200.1" cy="590.9" r="4" fill="#D6564F" fill-opacity="1.0"/>
<text x="207.1" y="591.1" fill="#e9ebff" font-size="9" text-anchor="end" transform="rotate(361.3 207.1 591.1)" dominant-baseline="middle" fill-opacity="1.00">F58 Names &amp; terms you use</text>
<circle cx="333.6" cy="531.9" r="5" fill="#D6564F"/>
<circle cx="202.6" cy="554.6" r="4" fill="#D6564F" fill-opacity="0.4"/>
<text x="209.5" y="555.4" fill="#e9ebff" font-size="9" text-anchor="end" transform="rotate(366.5 209.5 555.4)" dominant-baseline="middle" fill-opacity="0.60">F34 Map to document transform</text>
<circle cx="208.4" cy="518.6" r="4" fill="#D6564F" fill-opacity="0.4"/>
<text x="215.2" y="520.0" fill="#e9ebff" font-size="9" text-anchor="end" transform="rotate(371.7 215.2 520.0)" dominant-baseline="middle" fill-opacity="0.60">F50 Highlight &amp; link on any page</text>
<circle cx="217.4" cy="483.3" r="4" fill="#D6564F" fill-opacity="0.4"/>
<text x="224.1" y="485.4" fill="#e9ebff" font-size="9" text-anchor="end" transform="rotate(377.0 224.1 485.4)" dominant-baseline="middle" fill-opacity="0.60">F61 Thought to document templates</text>
<circle cx="229.6" cy="449.0" r="4" fill="#D6564F" fill-opacity="0.4"/>
<text x="236.1" y="451.7" fill="#e9ebff" font-size="9" text-anchor="end" transform="rotate(382.2 236.1 451.7)" dominant-baseline="middle" fill-opacity="0.60">F66 Ask &amp; summarize your captures</text>
<circle cx="382.8" cy="431.4" r="5" fill="#D6564F"/>
<circle cx="244.8" cy="416.0" r="4" fill="#D6564F" fill-opacity="1.0"/>
<text x="251.1" y="419.2" fill="#e9ebff" font-size="9" text-anchor="end" transform="rotate(387.4 251.1 419.2)" dominant-baseline="middle" fill-opacity="1.00">F16 Your data in your own tools</text>
<circle cx="263.1" cy="384.4" r="4" fill="#D6564F" fill-opacity="0.4"/>
<text x="268.9" y="388.2" fill="#e9ebff" font-size="9" text-anchor="end" transform="rotate(392.6 268.9 388.2)" dominant-baseline="middle" fill-opacity="0.60">F51 Open schema translation layer</text>
<circle cx="284.0" cy="354.7" r="4" fill="#D6564F" fill-opacity="1.0"/>
<text x="289.6" y="359.0" fill="#e9ebff" font-size="9" text-anchor="end" transform="rotate(397.8 289.6 359.0)" dominant-baseline="middle" fill-opacity="1.00">F52 Private local knowledge store</text>
<circle cx="307.7" cy="327.0" r="4" fill="#D6564F" fill-opacity="0.4"/>
<text x="312.8" y="331.8" fill="#e9ebff" font-size="9" text-anchor="end" transform="rotate(403.0 312.8 331.8)" dominant-baseline="middle" fill-opacity="0.60">F67 Long-term personal memory</text>
<circle cx="333.7" cy="301.5" r="4" fill="#D6564F" fill-opacity="0.4"/>
<text x="338.4" y="306.7" fill="#e9ebff" font-size="9" text-anchor="end" transform="rotate(408.3 338.4 306.7)" dominant-baseline="middle" fill-opacity="0.60">F68 Cross-device sync</text>
<circle cx="550.8" cy="458.3" r="5" fill="#7D8CF0"/>
<text x="554.4" y="468.7" fill="#fff" font-size="13" font-weight="700" text-anchor="end" transform="rotate(430.9 554.4 468.7)" dominant-baseline="middle">SMI</text>
<circle cx="457.1" cy="365.0" r="5" fill="#7D8CF0"/>
<circle cx="361.9" cy="278.5" r="4" fill="#7D8CF0" fill-opacity="0.4"/>
<text x="366.1" y="284.2" fill="#e9ebff" font-size="9" text-anchor="end" transform="rotate(413.5 366.1 284.2)" dominant-baseline="middle" fill-opacity="0.60">F12 Open sensor connection layer (CSP)</text>
<circle cx="392.2" cy="258.2" r="4" fill="#7D8CF0" fill-opacity="0.4"/>
<text x="395.8" y="264.2" fill="#e9ebff" font-size="9" text-anchor="end" transform="rotate(418.7 395.8 264.2)" dominant-baseline="middle" fill-opacity="0.60">F30 Wearable sensor connection</text>
<circle cx="424.1" cy="240.7" r="4" fill="#7D8CF0" fill-opacity="0.4"/>
<text x="427.2" y="247.0" fill="#e9ebff" font-size="9" text-anchor="end" transform="rotate(423.9 427.2 247.0)" dominant-baseline="middle" fill-opacity="0.60">F46 Brain sensor connection layer</text>
<circle cx="513.8" cy="338.8" r="5" fill="#7D8CF0"/>
<circle cx="457.5" cy="226.2" r="4" fill="#7D8CF0" fill-opacity="0.4"/>
<text x="460.0" y="232.8" fill="#e9ebff" font-size="9" text-anchor="end" transform="rotate(429.1 460.0 232.8)" dominant-baseline="middle" fill-opacity="0.60">F55 Your custom tracking axes</text>
<circle cx="492.1" cy="214.8" r="4" fill="#7D8CF0" fill-opacity="0.4" stroke="#fff" stroke-width="1.4" stroke-dasharray="2,2"/>
<text x="494.0" y="221.6" fill="#e9ebff" font-size="9" text-anchor="end" transform="rotate(434.3 494.0 221.6)" dominant-baseline="middle" fill-opacity="0.60">F62 Opt-in self-assessment tools</text>
<circle cx="562.6" cy="327.6" r="5" fill="#7D8CF0"/>
<circle cx="527.6" cy="206.6" r="4" fill="#7D8CF0" fill-opacity="1.0"/>
<text x="528.8" y="213.5" fill="#e9ebff" font-size="9" text-anchor="end" transform="rotate(439.6 528.8 213.5)" dominant-baseline="middle" fill-opacity="1.00">F39 Personalized gentle nudges</text>
<circle cx="563.6" cy="201.7" r="4" fill="#7D8CF0" fill-opacity="0.4"/>
<text x="564.3" y="208.6" fill="#e9ebff" font-size="9" text-anchor="end" transform="rotate(444.8 564.3 208.6)" dominant-baseline="middle" fill-opacity="0.60">F43 Layered wellbeing dashboard</text>
<rect x="24" y="1158" width="13" height="13" rx="3" fill="#8B3FC7"/>
<text x="42" y="1170" fill="#a9abce" font-size="12">AEF</text>
<rect x="174" y="1158" width="13" height="13" rx="3" fill="#3B7DD6"/>
<text x="192" y="1170" fill="#a9abce" font-size="12">ERM</text>
<rect x="324" y="1158" width="13" height="13" rx="3" fill="#2FB3A3"/>
<text x="342" y="1170" fill="#a9abce" font-size="12">SCI</text>
<rect x="474" y="1158" width="13" height="13" rx="3" fill="#E0A11B"/>
<text x="492" y="1170" fill="#a9abce" font-size="12">SPR</text>
<rect x="624" y="1158" width="13" height="13" rx="3" fill="#D6564F"/>
<text x="642" y="1170" fill="#a9abce" font-size="12">CTO</text>
<rect x="774" y="1158" width="13" height="13" rx="3" fill="#7D8CF0"/>
<text x="792" y="1170" fill="#a9abce" font-size="12">SMI</text>
</svg>